<svg xmlns="http://www.w3.org/2000/svg" viewBox="0 0 258 303.61">
  <title>Asset 3</title>
  <g id="Layer_2" data-name="Layer 2">
    <g id="Layer_1-2" data-name="Layer 1">
      <path d="M103.1,0h11.46c1.39.18,2.77.43,4.17.53,4.79.33,9.66.2,14.38,1a129.1,129.1,0,0,1,41,14,163.75,163.75,0,0,1,46,36.3,140.81,140.81,0,0,1,11,14.42c3.31,5,6,10.35,9.06,15.44,9.1,14.94,15.33,30.87,16.88,48.43.26,3,.64,5.91,1,8.86v8c-.17.81-.39,1.6-.49,2.42-1,8.38-1.67,16.84-3.17,25.14-2.44,13.5-5.84,26.77-12.92,38.76-2.78,4.71-5.93,9.22-8.51,14-5.82,10.91-13.29,20.64-21.38,29.88-8.46,9.65-18.52,17.64-29,25A116.43,116.43,0,0,1,136,302c-13.26,2.39-26.42,2.68-39.1-2.92a82.79,82.79,0,0,1-27.16-19.33c-7.86-8.37-15.28-17-21.3-26.83a400.61,400.61,0,0,1-30.18-59.37A243.38,243.38,0,0,1,1,118.94c-.28-4-.66-7.9-1-11.85q0-5,0-10c.36-4,.69-8.06,1.08-12.09C2.64,68.72,7,53.26,15.79,39.31c7.85-12.4,19.16-21.1,32-27.57C61.24,5,75.85,2.24,90.76,1,94.87.71,99,.35,103.1,0Z"/>
    </g>
  </g>
</svg>
