<svg xmlns="http://www.w3.org/2000/svg" viewBox="0 0 605.72 621.48">
  <defs>
    <style>
      .cls-1 {
        fill: #121a63;
      }

      .cls-2 {
        fill: #121848;
      }

      .cls-3 {
        fill: #313359;
      }

      .cls-4 {
        fill: #131948;
      }

      .cls-5 {
        fill: #fdc4c2;
      }

      .cls-6 {
        fill: #348e75;
      }

      .cls-7 {
        fill: #313363;
      }

      .cls-8 {
        fill: #1d2761;
      }

      .cls-9 {
        fill: #43a468;
      }

      .cls-10 {
        fill: #469a69;
      }

      .cls-11 {
        fill: #9bb26c;
      }

      .cls-12 {
        fill: #afb8cd;
      }

      .cls-13 {
        fill: #8fa055;
      }

      .cls-14 {
        fill: #6d8495;
      }

      .cls-15 {
        fill: #7f76a2;
      }

      .cls-16 {
        fill: #98b048;
      }

      .cls-17 {
        fill: #788571;
      }

      .cls-18 {
        fill: #a7be40;
      }

      .cls-19 {
        fill: #389771;
      }

      .cls-20 {
        fill: #8f9e5d;
      }

      .cls-21 {
        fill: #8fa4a7;
      }

      .cls-22 {
        fill: #399f6e;
      }

      .cls-23 {
        fill: #4a9269;
      }

      .cls-24 {
        fill: #3d9a6d;
      }

      .cls-25 {
        fill: #c85577;
      }

      .cls-26 {
        fill: #a9517d;
      }

      .cls-27 {
        fill: #8b5e77;
      }

      .cls-28 {
        fill: #fec4c3;
      }

      .cls-29 {
        fill: #b2a491;
      }

      .cls-30 {
        fill: #a2998d;
      }

      .cls-31 {
        fill: #98b15c;
      }

      .cls-32 {
        fill: #489c68;
      }

      .cls-33 {
        fill: #396f7a;
      }

      .cls-34 {
        fill: #e3fd04;
      }

      .cls-35 {
        fill: #fe5c71;
      }

      .cls-36 {
        fill: #e0f3fa;
      }

      .cls-37 {
        fill: #35cb61;
      }

      .cls-38 {
        fill: #111749;
      }

      .cls-39 {
        fill: #fefefe;
      }

      .cls-40 {
        fill: #eb4358;
      }

      .cls-41 {
        fill: #35cb60;
      }

      .cls-42 {
        fill: #fefefc;
      }

      .cls-43 {
        fill: #fdfdfc;
      }

      .cls-44 {
        fill: #eb4458;
      }

      .cls-45 {
        fill: #f2f2f0;
      }

      .cls-46 {
        fill: #fefefd;
      }

      .cls-47 {
        fill: #fd5c70;
      }

      .cls-48 {
        fill: #ea4457;
      }

      .cls-49 {
        fill: #9fa668;
      }

      .cls-50 {
        fill: #a6a280;
      }

      .cls-51 {
        fill: #7c9453;
      }

      .cls-52 {
        fill: #f4f5f4;
      }
    </style>
  </defs>
  <title>Asset 2</title>
  <g id="Layer_2" data-name="Layer 2">
    <g id="Layer_1-2" data-name="Layer 1">
      <g id="Layer_2-2" data-name="Layer 2">
        <g id="Layer_1-2-2" data-name="Layer 1-2">
          <path class="cls-1" d="M298.5,25.21c23.1-44.2,80.2-23.7,105.4,11.2,10.6,14.7,25,18.4,41.8,19.2,25.1,1.3,46.4,10.3,58.9,33.7,16.9,31.8,50,39.4,78.9,53.5,9.5,5.7,15.7,14.2,19.2,24.5a49.64,49.64,0,0,1,1.8,22c-.1.5-.5.9-.5,1.4,1.1,16.6-11,23.2-22.8,30-7.7,3.8-16,5.8-24.2,8.2-15.1,4.5-30.5,3.1-45.7,4.7-11.7,1.3-23.7-.3-34-6.8a57.52,57.52,0,0,1-11.2-9.8c-1.5-2-3.1-4.1-4.6-6.1-2.7-.6-3.5-2.8-4.6-4.9-6.1-11.9-9.5-24.7-12.7-37.6-2.2-9.1-3.4-18.6-6.4-27.5-1.6-2.9-2.4-6.2-3.7-9.2-6.3-15.1-13.2-18.8-30.2-16.2-4.7,1.7-9.3,3.4-14.4,3.2-12.6,2.6-23.5-8.8-22.2-23.3a6.2,6.2,0,0,1,3.3-5.3c3.7-1.8,4.5-5,4.6-8.7a22,22,0,0,0-4.3-13.6c-1.4-2.1-3.5-3.8-6.3-3.1-2.5.6-3,2.9-3.2,5.1-.3,5-3.8,7.2-7.8,8.7-10.8,3.9-21.3,2.7-31.5-1.8a26.58,26.58,0,0,1-4.5-2.5c3.9,9.6,8.4,18.1,15.1,25.4a24.6,24.6,0,0,0,20.6,8.2c7.9-.5,11,4.8,7.2,12.2-1.9,1.3-3.7,2.9-6.3,1.6-2.4-7.9-10.2-6.2-15.5-8.1-36.6-13.3-48.7-32.6-42.5-69a33.48,33.48,0,0,0,.1-5.5C295.8,34.21,294.7,29.31,298.5,25.21Z"/>
          <path class="cls-2" d="M88.5,306.31l16,.6c-1.6,2.9,0,5.1,1.8,7.2,7.9,9.3,14.6,19.4,21.9,29.1,15.8,20.6,31.8,41,47.2,61.8,5.1,7,10.8,13.5,16,20.4,7,9.2,7.1,18.1,0,27.4-16,20.9-32.3,41.5-48,62.5-17.3,23.1-35,46.1-52.1,69.4-1.8,2.4-3.9,4.5-5.7,6.9-3.5,4.6-3.4,9.3-1.1,14s6.8,5.3,11.5,5.3H300.9c4.5,0,9.1-.2,11.3-4.7a15.23,15.23,0,0,0-.5-15.3c-2.5-4.3-5.8-8.1-8.8-12.1a29.65,29.65,0,0,1-5.8-12.6c-.5-2.4-.3-4.7,1.8-6.4,2.6-.7,3.4.9,3.7,3,6.4,9.8,15,18.9,18.7,29.6,5.6,16.4-.8,28.1-20.1,28.1-69.3,0-138.6-.5-207.9-.3-8.1,0-14-3.2-17.1-9.5-3.8-8.1-4.9-17,1.3-25l109.7-141.8c2.5-3.2,2.4-5.6,0-8.8Q137.7,370.91,88.5,306.31Z"/>
          <path class="cls-3" d="M101.5,288.21c-.3-2.4-.7-4.8-1-7.2,1.7-.9,3.6-.5,5.4-.5H245.2c1.8,0,3.7.3,5.4-.3,2-1.5,4.3-1.3,6.6-1.3,6.7-.1,13.4.2,20.1-.3,3,1,6.1-.6,9.1.3,11.7-.1,23.5-.1,35.2,0,2.1,0,4.3-.2,6.4.5a6.14,6.14,0,0,1,4.5,4.8c.5,2.4-.1,4.3-2.6,5.2a27.85,27.85,0,0,1-5,.1H107.4C105.5,289.51,103.2,290.31,101.5,288.21Z"/>
          <path class="cls-4" d="M468.3,613c2.5-5.3,4.9-10.6,7.4-15.9-.1.1-.3.3-.2.4,8,29.6-12.9,23.5-28.9,23.4-19.5-.1-39-.6-58.5-.1-7.8.2-9.4-1.7-8.5-9.6,4.2-37,7.7-74.2,11.4-111.3-.1-1.3-.2-2.4,1.7-1.8,2.5,3.3,3,7.5,3.3,11.3a141.36,141.36,0,0,1-.5,18.4c-.6,9.1-2.1,18-2.8,27.1-.9,10.2-2.1,20.4-3.4,30.6-.9,7-.3,14.2-2.3,21.2-.2.5,1.7-.3,2.3.6,2.1,3.2,5.3,3.5,8.8,3.5h61.8C462.9,610.81,466,610.41,468.3,613Z"/>
          <path class="cls-5" d="M261.5,242.21l2.7,11.7c-2.7,2.3-6.3,1.7-9.4,3-3.8-.1-7.5,3.4-11.3.2-1.5-4.7-3.1-9.5-4.6-14.2,5.1.3,10.2.6,15.3,1a25.39,25.39,0,0,1,5.4-.9C260.3,242.71,260.9,242.51,261.5,242.21Z"/>
          <path class="cls-6" d="M101.5,288.21c20.9.3,41.9.8,62.8.8,55.4.1,110.8-.1,166.2-.1l.3.6c-.1.2-.3.3-.4.5H77.4c-.7-.3-.7-.5,0-.8C85.4,288.81,93.5,288.51,101.5,288.21Z"/>
          <path class="cls-7" d="M251.6,280.91q-75.6,0-151.1.1a2.92,2.92,0,0,1-.2-.9q75,0,150.1-.1C251.2,279.61,251.6,280.11,251.6,280.91Z"/>
          <path class="cls-8" d="M583.5,142.81c17,9.3,21.7,24.5,22.2,42.9s-8.5,28.8-24.2,35.5c-.66.4-1.34-.47-.1-1.2"/>
          <path class="cls-9" d="M493.5,374l-120.1.9c29.6-.7,59.2-1.3,88.9-2C472.7,373.31,483.1,373.61,493.5,374Z"/>
          <path class="cls-10" d="M77.4,289.21v.8l-36.7-.3C52.9,289.51,65.2,289.31,77.4,289.21Z"/>
          <path class="cls-11" d="M348.4,153.11c-.3,6-.5,12-.8,18C347.8,165.21,348.1,159.21,348.4,153.11Z"/>
          <path class="cls-12" d="M322.4,558.41c-.2-4.4-.5-8.7-.7-13.1.1-.2.3-.3.4-.5C322.2,549.31,322.3,553.81,322.4,558.41Z"/>
          <path class="cls-13" d="M364.6,496.51c-.4,2.5-.7,5-1.1,7.4.3-3,.5-6,.8-9C365,495.41,364.9,495.91,364.6,496.51Z"/>
          <path class="cls-14" d="M349.3,138c-.2,2.3-.4,4.7-.5,7C348.9,142.71,349.1,140.31,349.3,138Z"/>
          <path class="cls-15" d="M364.6,496.51l-.3-1.5c.1-1.7.1-3.4.2-5C364.5,492.11,364.6,494.31,364.6,496.51Z"/>
          <path class="cls-16" d="M359.3,531.11c-.2,2.4-.5,4.8-.7,7.2C358.8,535.91,359,533.51,359.3,531.11Z"/>
          <path class="cls-17" d="M259.6,243l-5.4.9Z"/>
          <path class="cls-18" d="M322.1,544.81a1,1,0,0,1-.4.5c-.1-2.1-.2-4.3-.2-6.4C321.6,540.81,321.8,542.81,322.1,544.81Z"/>
          <path class="cls-19" d="M504.4,383.61c.3-1.9.6-3.8,1-5.7C505.1,379.71,504.7,381.61,504.4,383.61Z"/>
          <path class="cls-20" d="M319.3,531c-.3-1.7-.5-3.4-.8-5.2C318.7,527.61,319,529.31,319.3,531Z"/>
          <path class="cls-21" d="M345.3,208.61c-.3,1.8-.6,3.7-.9,5.5A48.52,48.52,0,0,0,345.3,208.61Z"/>
          <path class="cls-22" d="M508.4,361.31c.3-1.8.7-3.6,1-5.4C509.1,357.71,508.7,359.51,508.4,361.31Z"/>
          <path class="cls-23" d="M506.5,372.41c.3-1.9.7-3.7,1-5.6C507.1,368.61,506.8,370.51,506.5,372.41Z"/>
          <path class="cls-24" d="M502.5,328.11c-.3,1.7-.7,3.3-1,5C501.8,331.41,502.1,329.71,502.5,328.11Z"/>
          <path class="cls-25" d="M362.4,377.81c-4.3,0-8.6-.1-13-.1l13-.6c.4.2.5.4.4.5A.52.52,0,0,1,362.4,377.81Z"/>
          <path class="cls-26" d="M362.4,377.81v-.7c3.4,0,6.7-.1,10.1-.1a2.92,2.92,0,0,1,.2.9C369.3,377.91,365.9,377.91,362.4,377.81Z"/>
          <path class="cls-27" d="M287.4,514.41c-.4-1.8-.9-3.5-1.3-5.3C286.5,510.81,287,512.61,287.4,514.41Z"/>
          <path class="cls-28" d="M321.5,268.91c-8.8,14.1-28.1-5.1-36.2,11.4-2.4,0-4.8-.1-7.2-.1,4.8-7.3,6.6-17.6,18.1-18.2,1.6-1.1,3.7.2,5.3-.9a1.48,1.48,0,0,1,.7-.1c1.7-1.1,3.7.2,5.4-.9,7-1.3,13.9-2.7,20.9-4,1.3,4,2.6,7.9,3.9,11.9C329,270.71,325,267.41,321.5,268.91Z"/>
          <path class="cls-29" d="M321.5,268.91c3.7-.3,7.3-.7,11-1l.9,1.5a2.2,2.2,0,0,0-.8-.1,19.37,19.37,0,0,1-7.2,0C324,269.11,322.7,269,321.5,268.91Z"/>
          <path class="cls-30" d="M264.4,255.51l-9.9-.9c3.2-.2,6.5-.4,9.7-.7A10,10,0,0,1,264.4,255.51Z"/>
          <path class="cls-31" d="M401.8,270.11l-7.9.9Z"/>
          <path class="cls-32" d="M330.6,288.91c20.4.4,40.7.7,61.1,1.1H330.4C330.5,289.61,330.5,289.21,330.6,288.91Z"/>
          <path class="cls-4" d="M467.3,604.11c-.5-4.4-3-5.3-7.3-5.2-17.8.3-35.7-.2-53.5,0-5.3.1-6.1-1.7-4.2-6.1-.5,4.2,1.6,5.3,5.6,5.3,17.8-.2,35.6.1,53.4-.2C466,597.81,468.2,599.11,467.3,604.11Z"/>
          <path class="cls-33" d="M423.4,392.11c-4,.3-7.9.5-11.9.8a1.09,1.09,0,0,1-.2-1.7h13.1A9,9,0,0,1,423.4,392.11Z"/>
          <path class="cls-4" d="M468.3,611.21c-.3-2.4-.7-4.7-1-7.1C467.6,606.41,468,608.81,468.3,611.21Z"/>
          <path class="cls-34" d="M205.94,606.71c-6.94-.38-13.93.13-20.92.44l19.48.05a7,7,0,0,0,2.9.3h8.24C212.43,607.2,209.2,606.89,205.94,606.71Z"/>
          <path class="cls-34" d="M310.3,595.71q-1.37-2-2.79-4A29.74,29.74,0,0,1,311,598.2a5,5,0,0,1-3.49,6.15c-9.71,2.17-21,1.33-30.85.88-6.21-.28-12.53-1-18.73-.42-5.42.47-10.76,1.79-16.13,2.69H303.5a5.71,5.71,0,0,0,2.9-.4C312.7,605,313.1,599.91,310.3,595.71Z"/>
          <path class="cls-34" d="M89,596.76a15.29,15.29,0,0,1,2.08-6.52,4.41,4.41,0,0,1,2.37-4c.32-.86.67-1.71,1.06-2.53L84.6,596.51c.9,2.4-.1,5,.7,7.5,2.6.9,5.2,2.7,7.8,2.7q17.82.14,35.66.23c-7.55-.52-15.05-1.38-22.64-1.78C100.42,604.85,88.58,605.29,89,596.76Z"/>
          <path class="cls-34" d="M271.67,549.1a32.88,32.88,0,0,1-3.34,2.9A6.74,6.74,0,0,0,271.67,549.1Z"/>
          <g>
            <path class="cls-35" d="M471.5,291.61c10,23,23.9,45.9,6.8,71.1-3.3,4.8-10.6,6.9-16,10.2-1.9,2.8-4.8,2.6-7.6,2.6-21.8,0-43.6.1-65.5,0a42.72,42.72,0,0,0-13.3,1.8,23.54,23.54,0,0,1-3.5,1.1c-3.3.2-6.6.1-10,.1-4.5-.4-8.9.7-13.3,1.5-7,.3-14,.3-21.1-.1-5.6.6-11.3.1-17,.3-6.3.1-7.3,1.2-6.1,7.6,1.4,7.5,1.9,15.2,3,22.7a5.46,5.46,0,0,1-1.5,5c4.5,33,9.1,66,13.5,99,.4,2.7,3,6.8-2.6,7.8a5.68,5.68,0,0,1-3.9,2.8c-6.3,1.2-12.5,3-18.9,3.4-6.4-.1-7.1-.8-8.6-6.9-.6-2.3-.5-4.5-.8-6.8a12.3,12.3,0,0,0-1.1-5.3c-4.3-19.9-7.3-40.1-12.1-60-4.9-20.2-11-40-17.2-59.8-.8-2.5-1.6-5.1-2.3-7.6-1.3-3.2,0-5.9,1.9-8.3,12.3-16.2,24.7-32.2,37.2-48.2a9.43,9.43,0,0,1,4.3-3.3c24.2-6.6,48.9-10.9,73.7-14.6a115.65,115.65,0,0,0,15.5-3.4,38.41,38.41,0,0,0,9-1.4c11.9-2,23.8-4.5,35.7-6.1,9.8-1.4,19.5-3.2,29.4-3.6.4,0-.1-1,.4-1.4C463.6,288.91,467.5,289.41,471.5,291.61Z"/>
            <path class="cls-3" d="M100.2,280.11c-8.7-29.7-17.5-59.3-25.7-89.2-1.2-4.5,3.1-7.2,8.1-7.2,43,.1,86,0,129,.1,6.1,0,10.1,2.6,11.9,9,4.9,16.8,10.2,33.4,15.4,50,4.3,3.7,4.5,9.2,6.2,14.1,3,5.8,4.2,12.2,6.1,18.4.6,2.2.8,4.8-2.2,5.8a33.74,33.74,0,0,1-5.5.2H107.9C105.3,281.51,102.5,282.11,100.2,280.11Z"/>
            <path class="cls-36" d="M404.3,113.91c23.3-6.9,29.4,9.3,35,26.1,3.2,31.7,4.6,63.7,12.6,94.7a40.54,40.54,0,0,1,.3,15.9c-1.8,11.6-11.2,18.9-24.3,19.5-7.1.3-14.3.4-21.2,2.6-2,.4-3.9-.5-5.8-.4-2.5-.5-4.8.4-7.2.7-17.5,1.4-35,3.3-52.6,4.4-5.9.4-7.4-.5-9.3-6.4a8.78,8.78,0,0,0-.7-2.3c-1.9-3.8-2.1-8.4-5.6-11.5-3.3-1.5-6.6-.6-9.8-.1-13.6,1.7-27.2.9-40.7,1.2-3.7.1-7.6,1.4-11-1.6a3.77,3.77,0,0,1-.9-1.5c-1.6-4.2-3.3-8.4-1.6-13-2-5.5.8-6.6,5.7-7.3,24-3.5,47.9-7.7,71.9-11,7.4-1,4.5-6.1,5.4-9.8,1-1.7-.1-3.8.9-5.5.7-12.5,1.5-25,2.2-37.4,1.1-6-.5-12.1.8-18l.3-8.1c.6-2.3-.3-4.7.5-7,1-4.1,2-8.1,3.1-12.2,3.5,1.1,3.5,4.3,3.9,6.9,3.2,18.9,6.1,37.9,7.4,57.1.5,8.1,4,14.3,12.1,17.1a8.31,8.31,0,0,1,3.8,2.3c1.5,2.2.9,4.4.4,6.7-1.5,6.5-2.9,13-4.3,19.4-1,4.5-.5,5,3.9,4.7,6.8-.6,13.6-1,20.1-3.4,8.7-1.7,8.5-1.7,7.1-10.2-3.4-21.8-7.4-43.6-8.6-65.7-.6-10.6-1.3-21.2.1-31.8C398.9,123.31,400.6,118.21,404.3,113.91Z"/>
            <path class="cls-37" d="M394,304.81c-2.9.5-5.8.9-8.7,1.4-15.2,1.8-30.5,2.1-45.9,2.2-8.5-2.1-17-.1-25.5-.3a34.32,34.32,0,0,1-6.4-.3c-5.2,0-10.3.5-15.5.3-4-.9-7.9.1-11.9.1q-80.55-.15-161.1-.1c-4.2,0-8.3,0-12.5.3a12.5,12.5,0,0,0-1.9.3c-5.3-1.8-11.2.7-16.2-2.5-26.1-.1-52.3,0-78.4-.2-5.1,0-9.9-1.2-10-8s4-8.2,9.7-8.2c10.3.1,20.6-.1,30.9-.2,12.4-.3,24.8-.1,37.2-.1,84.1-2,168.2-.6,252.3-1h53.2a40,40,0,0,0,6.9-.4c4.6-.2,7.2,2.2,8.4,6.4C400,300.61,399.5,301.71,394,304.81Z"/>
            <path class="cls-38" d="M477.3,391.31c7.2,66.1,15.2,132.1,20.9,198.3,1.8,21.3-15.8,2.2-22.5,7.5-2.4,3.4-2.2,7.5-3.4,11.2-.7,2.2-1,4.7-4.1,4.9a3.81,3.81,0,0,1-1.4-1.9,24.35,24.35,0,0,0-1.5-7,10.09,10.09,0,0,1-.7-1.5c-2.7-3.5-6.7-3.2-10.5-3.3-15.4-.1-30.9-.2-46.3,0-4.7.1-7.3-1.5-7.7-6.2.2-12.5,2.4-24.8,3.6-37.2,1.3-14.2,3.1-28.4,4.6-42.6,1.7-16.7,3.5-33.4,5.4-50,1.5-14,2.8-28.1,4.6-42.1,1.3-9.9,1.3-19.9,4-29.6a5.06,5.06,0,0,1,2-2.1c3-1.3,5.8-1.2,8.1,1.5,2.7,6.1.2,12.2-.3,18.2-1.5,17.6-3.9,35-5.6,52.6-1.5,15.6-3.5,31-5.3,46.6-1.6,14.4-2.9,28.8-4.6,43.1-1.3,10.6-2.2,21.2-3.3,31.7-.4,3.8,1,5.3,4.6,5.3q20.25.15,40.5,0c4.2-.1,5.4-1.5,4.7-6.8-1.5-12.5-2.3-25.2-4.1-37.7-1.7-11.9-2.3-23.8-3.7-35.7-1.9-16.3-3.9-32.7-5.6-49-1.4-13.7-3.2-27.4-4.4-41.1-.7-7.3-1.7-14.5-2.3-21.8-.2-2.2-.4-4.3,1.2-6.1,3.7-2.3,6.8-1.7,9.3,1.9,2.4,6.3,2.2,13.1,3,19.6,2.7,23.1,5.4,46.2,7.9,69.3,2.1,19.5,4.3,39,6.4,58.5,1.6,14.7,3.2,29.4,5,44.1.5,4.5,2.8,5.6,9,5.1,4.1-.4,4.1-2.8,3.8-5.9-2.2-21-4.7-41.9-6.8-62.9-1.8-16.9-3.7-33.7-5.5-50.5-2-19.3-4.4-38.6-6.4-57.9-.6-6-2.5-12.1-.9-18.3C471.4,388.51,473.3,388.11,477.3,391.31Z"/>
            <path class="cls-39" d="M379.2,210c-27.7-7.3-15.2-31.9-20.5-48.7-3.6-11.4-4.4-23.7-6.4-35.6.6-1.4,1.2-2.7,1.9-4.1,2-.9,4.1-1.9,6.1-2.8,3.1-.2,3.5,2.6,4.6,4.4,2.9,4.6,6.9,6.9,12.4,6.6,5.7-.3,8.8-2.8,9.9-8.4a6.79,6.79,0,0,1,2.1-4.3c5-1.1,9.9-2.1,14.9-3.2-11.7,40.8,1.2,80.3,5.7,120.3.7,6.1-6.6,3.2-10.3,3.8-2.7-1.7-2.3-4.9-3.4-7.4a51.59,51.59,0,0,1-3-8.3c-1.5-5.5-3.9-10.1-10.6-10.4C381.2,211.91,380.2,210.81,379.2,210Z"/>
            <path class="cls-40" d="M306.5,415.51c-.7-4.6-.7-9.4-2.1-13.7-7.7-23.2,3.9-27.1,23.2-23.7a12.43,12.43,0,0,1,5.4,5.7c13.8,24.5,27.3,49.1,41.2,73.5,1.6,2.8,3,5.7,1.5,9-3.7,4.9-7.9,9.3-12,13.9-1.2,1.4-2.5,2.7-4.5,2.9-2.9,2.4-4.3.7-6.1-1.8C337.7,459.31,322.1,437.41,306.5,415.51Z"/>
            <path class="cls-39" d="M405.6,272.11c5.1-6.1,12.3-3.6,18.4-3.8,21.9-.7,29.7-12.5,25.7-32.4-6.4-31.7-11.8-63.4-10.4-95.9,7.2,23.7,10.2,48.7,22.3,70.9-3.2,27.7-1.9,54.8,9.9,80.7l-12.3,1.2c-5.8,1.9-11.8,1-17.7,2.1-9.6,1.8-19.2.9-28.8.2-1.9-.1-3.7-.3-5.1-1.7-3.7-5.7-3.3-12.2-3.9-18.5A3.29,3.29,0,0,1,405.6,272.11Z"/>
            <path class="cls-41" d="M477.3,391.31c-2.4.7-4.8,1.3-7.2,2-6.1,1.5-12.1,1.8-18-.6-2.6-.4-5.2-.9-7.8-1.3-4.1,2.6-8.3,2.5-12.5.4l-7.4-.6c-4.1,2.2-8.6.9-12.9,1.5a30.19,30.19,0,0,1-8.5.2c-7.9.6-15.9.3-23.8.2-6.4-.1-7.8-1.7-8-8a23,23,0,0,1,.4-6.4,3.15,3.15,0,0,1,.9-1.7l.9-2.1c1.8-.8,3.6-.4,5.4-.4,24.5,0,48.9.2,73.4-.1,12.1-.2,24.3.4,36.4.1,1.6,0,3.3.4,4.9-.5,2.6-13.6,5.3-27.3,7.9-40.9,1.1-1.5-.3-3.5,1-5l11.4-.6c-1,7.4-2.1,14.8-3.2,22.2-.3,2.1-.9,4.1-1.4,6.2-1.1,1.7.1,3.8-1,5.4l-.9,5.4c-1.3,1.7,0,3.9-1,5.6-.4,1.8-.7,3.7-1.1,5.5-1.1,1.8,0,3.9-1,5.7C499.4,400.41,485.7,386.31,477.3,391.31Z"/>
            <path class="cls-42" d="M392.2,497.61c-.4.8-.7,1.5-1.1,2.3-6.7,14.5-10.5,30.5-21.4,42.9-2.7,3.1-6.2,5.5-9.3,8.2-.6-4.2-1.3-8.5-1.9-12.7,1-2.3-.2-4.9.7-7.2.8-4.7,1.5-9.4,2.3-14.2,1.3-.7,2.3-2.1,3.8-2.3,6.8-.7,9.8-5.6,12.4-11a89.92,89.92,0,0,0,4-10.2c1.9-5.3,2.9-10.5,1.3-16.1-.6-2.1-1-4.3,1.6-5.6,6-.9,8.7,3.1,11.2,7.5C395.4,485.61,397.2,492.31,392.2,497.61Z"/>
            <path class="cls-28" d="M384.3,472.81c1.7,19.5,2.7,38.6-22.7,44.1.7-4.3,1.3-8.6,2-13,.8-2.2.1-4.5.4-6.7a9.74,9.74,0,0,0,.5-7.3c-1.8-2.3-3.5-4.6-5.3-7l15-17.4C378.2,467.21,382.1,468.81,384.3,472.81Z"/>
            <path class="cls-28" d="M294.5,526.81l22.8-4.5c.4,1.2.8,2.4,1.2,3.5,1,1.6-.1,3.5.8,5.2.5,2.3,1,4.7,1.5,7-.7,5.2-3.9,8.8-8,11.5a33.09,33.09,0,0,1-17.2,5.8c-5.9-3.7-10.4-8.4-11.7-15.5a4.84,4.84,0,0,1,2.5-2.9c3.8-1.8,6.2-4.5,6.8-8.8C293.2,527.51,293.9,527.11,294.5,526.81Z"/>
            <path class="cls-43" d="M295.4,554c10.4-2.2,19.5-6.6,25.4-16a5.72,5.72,0,0,0,.7.8c1,2,.2,4.1.5,6.2.2,4.4-.5,8.9.5,13.3.2,2.6.3,5.2.5,7.8-2.4-1.4-5-2.4-7.1-4.1-4.8-4-8.9.4-13.3.9-1.1-.9-2.1-1.9-3.2-2.8C296,559.41,294.4,557.61,295.4,554Z"/>
            <path class="cls-28" d="M389.4,117.11c.6,6.9-1,12.8-8.7,14.5-10.8,2.4-16.7-3.5-20.4-12.8,0-6.4-.9-9.2-9.5-9.3-24.7-.2-28.3-22.4-38.5-40.7,12,7.2,22.8,11.7,34.9,9.1,6.1-1.3,13.2-1.7,12.5-11.2-.1-1.5,3.5-4.8,4.1-4.5,3.7,1.7,8.1,3.4,10.2,6.5,4.1,6.3,7.1,15.9,1.1,20.2-8.7,6.3-5.8,12.3-3.4,18.7C374.7,115.51,381.8,117.31,389.4,117.11Z"/>
            <path class="cls-38" d="M311,585.8c-5.7-7.6-14.2-14.3-11.6-25.7-1.3-2-2.7-4.1-4-6.1-3.7-4.59-7.3-9.19-10.9-13.8.5-2.5-51-69.2-72-95.7-2.2-2.9-3.3-5.2-.5-8.7,13.2-16.4,25.9-33.1,38.8-49.6a11.67,11.67,0,0,0,2.7-5.3c14-19,28.1-37.9,42.1-56.9a31.51,31.51,0,0,0,9.9-10c.5-2.6,4-4.5,2.1-7.8H292.4c-5.7,2.2-8.3,7.4-11.3,12.1-1.7,4.3-6.2,6.7-7.9,11-4.1,4.5-7.6,9.5-11.5,14.2-4.4,5.3-7.9,11.3-12.7,16.4-15.2,20.1-30.8,39.8-46.1,59.8-4,5.2-4.4,5.2-8.5-.2Q152.85,365.7,111.3,312a15.49,15.49,0,0,0-6-5.1h-.8l-4.8.6a24.62,24.62,0,0,0,2.3,4.2c25.5,33.5,51.2,66.8,76.3,100.6,8,10.7,24.4,20.9,13.2,36.4-31.4,43.2-64.6,85.1-96.7,127.8-6.6,8.8-18.9,16.8-11.5,30.3,6.4,11.8,18.8,5.8,28.3,5.9,62.1.5,124.3.3,186.4.3,6.3,0,13.2,1,16.4-6.3C317.7,599.2,316,592.5,311,585.8ZM131.52,534.56c.87-1.2,63-78.27,63.23-78.52l.07-.11h0c.16-.21,5.62-5.12,8.7-2.72,6.92,5.39,26,32.49,29.64,38.58s34.37,48.29,35.18,49.22,3.34,5.85,4.95,8.26a19.22,19.22,0,0,1-14,5.87c-1.09.39-2.18.8-3.25,1.25a10.91,10.91,0,0,1-3.69,3.6,25.84,25.84,0,0,1-4.73,2.52c-.31.28-.61.56-.94.81a17.2,17.2,0,0,1-1.45,1,5.41,5.41,0,0,1-.41.79c-.09.16-.21.31-.31.47.34.48.53,1.45.91,1.85,1.56,1.66,4.41,2.16,6.54,2.17,2.87,0,5.73-.77,8.57-1.08s5.64-.19,8.43-.64a7.32,7.32,0,0,1,2-.06c4.05-1.47,15-3.93,17.62-1a5.68,5.68,0,0,1,2.38,3.15,14.18,14.18,0,0,1,1.16.88c4,3.42,7,8.46,9.82,12.89,3.08,4.86,7.08,9,9.06,14.48a5,5,0,0,1-3.49,6.15c-9.71,2.17-21,1.33-30.85.88-6.21-.28-12.53-1-18.73-.42-6.39.55-40.87,2.5-51.95,1.89-10.58-.58-21.25.92-31.89.62-11.2-.31-22.34,0-33.54,0-11.56.06-22.88-1.61-34.38-2.22-5.71-.3-17.54.14-17.1-8.39a15.29,15.29,0,0,1,2.08-6.52,4.41,4.41,0,0,1,2.36-4c2.89-7.88,9.15-14.07,13.83-21.19,5-7.61,19.72-24.75,19.84-24.81"/>
            <path class="cls-40" d="M295.5,324c3-3.6,6.1-7.1,9.1-10.7,4.6-4.8,10.9-4.1,16.6-5.2s11.8-1,17.7-1.8c15.5,0,30.9,0,46.4-.1C355.4,312.21,325.4,318.11,295.5,324Z"/>
            <path class="cls-44" d="M408.3,291.81c17,.3,33.9.7,50.9,1a.76.76,0,0,0,.4.2c-.3.3-.5.8-.8.9q-32.4,5.55-64.7,10.9c1.1-3.3,2.2-6.6,3.3-9.8C400.1,290.81,404.1,290.81,408.3,291.81Z"/>
            <path class="cls-45" d="M161.5,232.21c-.6,4.7-2.3,9-8.2,9.1-4.8.1-8.5-3.9-7.4-7.5,1.3-4.4,5.1-10.1,8.9-11.2C159,221.51,161.3,227.21,161.5,232.21Z"/>
            <path class="cls-38" d="M411.3,391.21a9.85,9.85,0,0,1,.2,1.7c-3.1,30-6.1,60.1-9.2,90.1,1,2.8,1.9,5.6-.9,8-.7,5-1.4,10-2.1,14.9-1.1,2.3.2,4.9-.8,7.3,0,.6-.1,1.2-.1,1.7-1.2,2.3.2,5-.9,7.4,0,.5-.1,1.1-.1,1.6-1.2,2.4.2,5.1-.9,7.5,0,.5-.1,1-.1,1.5-1.3,2.6.2,5.5-.9,8.2a.52.52,0,0,1,0,.74l-.08.06c-1.3,2.6.2,5.6-.9,8.2,0,.6-.1,1.2-.1,1.8-1.1,2.3.2,4.9-.8,7.3,0,.6-.1,1.1-.1,1.7-1.2,2.4.2,5-.9,7.4,0,.5-.1,1.1-.1,1.6-1.2,2.4.1,5.1-.9,7.5,0,.5-.1,1-.1,1.5-1.3,2.6.2,5.6-.9,8.2a.52.52,0,0,1,0,.74l-.08.06c-1.3,2.6.2,5.6-.9,8.3,0,.6-.1,1.2-.1,1.8-1.1,2.4.2,5-.8,7.3,0,.6-.1,1.1-.1,1.7-.6,1.3-1.1,2.6-2.2,5.3,0-39.3,12.2-76.5,6.1-114.7.7-6.2,1.4-12.4,2.1-18.5,3.1-29.2,6.1-58.5,9.2-87.7C406.1,391.31,408.7,391.31,411.3,391.21Z"/>
            <path class="cls-46" d="M272.39,548.36l-.18.2c-3.74,3.75-7.5,6.64-12.93,6.58-1.09.39-2.19.8-3.26,1.25a10.91,10.91,0,0,1-3.69,3.6,26,26,0,0,1-4.69,2.51,12.55,12.55,0,0,1-1,.82c-.37.28-.79.57-1.25.85l-.26.25a5.47,5.47,0,0,1-.35.65c-.09.16-.21.31-.31.47.34.48.53,1.45.91,1.85,1.56,1.66,4.41,2.16,6.54,2.17,2.87,0,5.73-.77,8.57-1.08s5.64-.19,8.43-.64a5.72,5.72,0,0,1,2,0c5-.78,12.44-1.46,17.37-1.66a5.85,5.85,0,0,0-.7-.41C282.56,560,277.52,554.18,272.39,548.36Z"/>
            <path class="cls-47" d="M250.5,360.81c-.6-9.1-.4-18,7.1-24.8,2.9-5.5,8.3-6.8,13.6-8,1.3-.3,3.1-.5,3.2,1.8C266.4,340.21,258.5,350.51,250.5,360.81Z"/>
            <path class="cls-48" d="M274.4,329.91c-5.6,2-11.2,4.1-16.8,6.1,1.6-15.3,16.2-11.8,24.8-17.1C279.7,322.61,277,326.31,274.4,329.91Z"/>
            <path class="cls-46" d="M409,720.21"/>
          </g>
          <path class="cls-2" d="M243.48,607.21q31.46,0,62.92-.1-31.36.06-62.71.06Z"/>
          <path class="cls-2" d="M212.39,607.2h0Z"/>
          <path class="cls-2" d="M84.5,596.41c.2,2.5.5,5,.7,7.5C85,601.51,84.7,598.91,84.5,596.41Z"/>
          <path class="cls-49" d="M307.6,260l-5.4.9Z"/>
          <path class="cls-50" d="M301.5,261c-1.8.3-3.6.6-5.3.9C298,261.71,299.8,261.31,301.5,261Z"/>
          <path class="cls-51" d="M325.3,269.21Z"/>
          <path class="cls-52" d="M401.5,491.11c.3-2.7.6-5.4.9-8l5.1,4.2C405.4,488.61,403.5,489.81,401.5,491.11Z"/>
          <path class="cls-4" d="M389.5,596.31c.3-2.8.6-5.5.9-8.3C390.1,590.81,389.8,593.51,389.5,596.31Z"/>
          <path class="cls-4" d="M390.5,587.21c.3-2.7.6-5.5.9-8.2C391.1,581.71,390.8,584.51,390.5,587.21Z"/>
          <path class="cls-4" d="M394.5,550.21c.3-2.7.6-5.5.9-8.2C395.1,544.81,394.8,547.51,394.5,550.21Z"/>
          <path class="cls-4" d="M395.5,541.21c.3-2.7.6-5.4.9-8.2C396.1,535.71,395.8,538.51,395.5,541.21Z"/>
          <path class="cls-4" d="M388.5,605.41c.3-2.4.6-4.9.8-7.3C389.1,600.51,388.8,602.91,388.5,605.41Z"/>
          <path class="cls-4" d="M391.5,577.51l.9-7.5Z"/>
          <path class="cls-4" d="M392.5,568.41c.3-2.5.6-4.9.9-7.4C393.1,563.51,392.8,565.91,392.5,568.41Z"/>
          <path class="cls-4" d="M393.5,559.31c.3-2.4.6-4.9.8-7.3C394.1,554.51,393.8,556.91,393.5,559.31Z"/>
          <path class="cls-4" d="M398.5,513.31c.3-2.4.6-4.8.8-7.3C399.1,508.41,398.8,510.91,398.5,513.31Z"/>
          <path class="cls-4" d="M397.5,522.41c.3-2.5.6-4.9.9-7.4C398.1,517.51,397.8,519.91,397.5,522.41Z"/>
          <path class="cls-4" d="M396.5,531.51l.9-7.5Z"/>
        </g>
      </g>
    </g>
  </g>
</svg>
