<svg height="464pt" viewBox="-56 0 464 464" width="464pt" xmlns="http://www.w3.org/2000/svg"><path d="m160 40h40v184h-40zm0 0" fill="#ffde55"/><path d="m120 40h40v184h-40zm0 0" fill="#0b7"/><path d="m200 40-40-40-40 40zm0 0" fill="#787680"/><path d="m232 0v224h96v-224zm0 0" fill="#ffb655"/><path d="m352 288v-64h-336v64zm0 0" fill="#8b5e3c"/><path d="m32 288h304v176h-304zm0 0" fill="#a97c50"/><path d="m40 144h48v80h-48zm0 0" fill="#ff7956"/><path d="m48 0h32v32h-32zm0 0" fill="#ff7956"/><path d="m88 32h-48v112h48zm0 0" fill="#ffb655"/><path d="m32 288h304v16h-304zm0 0" fill="#8f6944"/><path d="m40 208h48v16h-48zm0 0" fill="#ff6243"/><path d="m120 208h40v16h-40zm0 0" fill="#00a166"/><path d="m160 208h40v16h-40zm0 0" fill="#ffd422"/><path d="m232 208h96v16h-96zm0 0" fill="#ffa733"/><g fill="#e6e7e8"><path d="m304 24h24v16h-24zm0 0"/><path d="m288 56h40v16h-40zm0 0"/><path d="m304 88h24v16h-24zm0 0"/><path d="m288 120h40v16h-40zm0 0"/><path d="m304 152h24v16h-24zm0 0"/><path d="m288 184h40v16h-40zm0 0"/></g><path d="m16 184h-16v-112c0-4.417969 3.582031-8 8-8h32v16h-24zm0 0" fill="#3e3d42"/></svg>